<svg width="65" height="65" viewBox="0 0 65 65" fill="none" xmlns="http://www.w3.org/2000/svg">
<g id="facebook icon">
<path id="Vector" d="M55.233 0.5H10.433C5.13107 0.5 0.833008 4.79807 0.833008 10.1V54.9C0.833008 60.2019 5.13107 64.5 10.433 64.5H55.233C60.5349 64.5 64.833 60.2019 64.833 54.9V10.1C64.833 4.79807 60.5349 0.5 55.233 0.5Z" fill="#1877F2"/>
<path id="Vector_2" d="M45.283 41.75L46.708 32.5H37.833V26.5C37.833 23.975 39.0705 21.5 43.0455 21.5H47.083V13.625C47.083 13.625 43.4205 13 39.9205 13C32.608 13 27.833 17.425 27.833 25.45V32.5H19.708V41.75H27.833V64.5H37.833V41.75H45.283Z" fill="white"/>
</g>
</svg>
