<svg width="21" height="20" viewBox="0 0 21 20" fill="none" xmlns="http://www.w3.org/2000/svg">
<g id="mail">
<mask id="mask0_2011_993" style="mask-type:alpha" maskUnits="userSpaceOnUse" x="0" y="0" width="21" height="20">
<rect id="Bounding box" x="0.333496" width="20" height="20" fill="#D9D9D9"/>
</mask>
<g mask="url(#mask0_2011_993)">
<path id="mail_2" d="M3.66667 16.6667C3.20833 16.6667 2.81597 16.5035 2.48958 16.1771C2.16319 15.8507 2 15.4584 2 15V5.00004C2 4.54171 2.16319 4.14935 2.48958 3.82296C2.81597 3.49657 3.20833 3.33337 3.66667 3.33337H17C17.4583 3.33337 17.8507 3.49657 18.1771 3.82296C18.5035 4.14935 18.6667 4.54171 18.6667 5.00004V15C18.6667 15.4584 18.5035 15.8507 18.1771 16.1771C17.8507 16.5035 17.4583 16.6667 17 16.6667H3.66667ZM10.3333 10.8334L3.66667 6.66671V15H17V6.66671L10.3333 10.8334ZM10.3333 9.16671L17 5.00004H3.66667L10.3333 9.16671ZM3.66667 6.66671V5.00004V15V6.66671Z" fill="#1C1B1F"/>
</g>
</g>
</svg>
