<svg width="65" height="65" viewBox="0 0 65 65" fill="none" xmlns="http://www.w3.org/2000/svg">
<g id="twitter icon">
<path id="Vector" d="M55.2333 0.5H10.4333C5.13132 0.5 0.833252 4.79807 0.833252 10.1V54.9C0.833252 60.2019 5.13132 64.5 10.4333 64.5H55.2333C60.5352 64.5 64.8333 60.2019 64.8333 54.9V10.1C64.8333 4.79807 60.5352 0.5 55.2333 0.5Z" fill="#1DA1F2"/>
<path id="Vector_2" d="M55.4582 19.5025C53.9764 20.4855 52.2365 21.0074 50.4582 21.0025C52.3594 19.8825 53.7829 18.1032 54.4582 16.0025C52.8823 17.3348 50.8964 18.085 48.8332 18.1275C47.473 16.7343 45.6975 15.8198 43.7734 15.5213C41.8493 15.2228 39.8802 15.5564 38.1617 16.4719C36.4433 17.3875 35.0681 18.8357 34.2426 20.5992C33.417 22.3627 33.1857 24.3464 33.5832 26.2525C30.0824 26.0677 26.6596 25.1486 23.537 23.555C20.4145 21.9615 17.662 19.729 15.4583 17.0025C14.3799 18.9538 14.0642 21.2359 14.5722 23.4067C15.0803 25.5775 16.3759 27.4824 18.2083 28.7525C16.8254 28.772 15.4566 28.4726 14.2083 27.8775C14.2419 29.891 14.9498 31.8351 16.2189 33.3988C17.4879 34.9624 19.2447 36.0553 21.2083 36.5025C19.9012 36.8438 18.5341 36.8866 17.2083 36.6275C17.7802 38.4113 18.8945 39.9722 20.3957 41.0925C21.897 42.2129 23.7105 42.8369 25.5832 42.8775C21.6279 45.2769 17.0844 46.5318 12.4583 46.5025C16.3327 49.0319 20.833 50.4364 25.4584 50.5598C30.0837 50.6831 34.6525 49.5204 38.6562 47.2011C42.66 44.8818 45.9415 41.4969 48.1355 37.4232C50.3295 33.3495 51.35 28.7468 51.0832 24.1275C52.7327 22.7786 54.203 21.2243 55.4582 19.5025Z" fill="white"/>
</g>
</svg>
