<svg width="21" height="20" viewBox="0 0 21 20" fill="none" xmlns="http://www.w3.org/2000/svg">
<g id="whatsapp">
<path id="Vector" d="M2.8335 17.5L4.20791 14.3333C3.15641 12.84 2.68578 11.0142 2.88434 9.1984C3.08291 7.38262 3.93701 5.70176 5.28637 4.47124C6.63573 3.24073 8.38758 2.54515 10.2132 2.51506C12.0387 2.48496 13.8126 3.12241 15.2017 4.30778C16.5909 5.49316 17.4999 7.14496 17.7581 8.9532C18.0164 10.7614 17.6061 12.6018 16.6044 14.129C15.6026 15.6561 14.0782 16.765 12.3173 17.2476C10.5563 17.7301 8.67985 17.5532 7.04003 16.75L2.8335 17.5" stroke="#15191E" stroke-width="1.5" stroke-linecap="round" stroke-linejoin="round"/>
<path id="Vector_2" d="M7.8335 8.3335C7.8335 8.444 7.87739 8.54998 7.95553 8.62812C8.03367 8.70626 8.13966 8.75016 8.25016 8.75016C8.36067 8.75016 8.46665 8.70626 8.54479 8.62812C8.62293 8.54998 8.66683 8.444 8.66683 8.3335V7.50016C8.66683 7.38966 8.62293 7.28367 8.54479 7.20553C8.46665 7.12739 8.36067 7.0835 8.25016 7.0835C8.13966 7.0835 8.03367 7.12739 7.95553 7.20553C7.87739 7.28367 7.8335 7.38966 7.8335 7.50016V8.3335ZM7.8335 8.3335C7.8335 9.43856 8.27248 10.4984 9.05388 11.2798C9.83529 12.0612 10.8951 12.5002 12.0002 12.5002H12.8335C12.944 12.5002 13.05 12.4563 13.1281 12.3781C13.2063 12.3 13.2502 12.194 13.2502 12.0835C13.2502 11.973 13.2063 11.867 13.1281 11.7889C13.05 11.7107 12.944 11.6668 12.8335 11.6668H12.0002C11.8897 11.6668 11.7837 11.7107 11.7055 11.7889C11.6274 11.867 11.5835 11.973 11.5835 12.0835C11.5835 12.194 11.6274 12.3 11.7055 12.3781C11.7837 12.4563 11.8897 12.5002 12.0002 12.5002" stroke="#15191E" stroke-width="1.5" stroke-linecap="round" stroke-linejoin="round"/>
</g>
</svg>
