<svg width="65" height="65" viewBox="0 0 65 65" fill="none" xmlns="http://www.w3.org/2000/svg">
<g id="youtube icon">
<path id="Vector" d="M55.2333 0.5H10.4333C5.13132 0.5 0.833252 4.79807 0.833252 10.1V54.9C0.833252 60.2019 5.13132 64.5 10.4333 64.5H55.2333C60.5352 64.5 64.8333 60.2019 64.8333 54.9V10.1C64.8333 4.79807 60.5352 0.5 55.2333 0.5Z" fill="#ED1D24"/>
<path id="Vector_2" d="M54.2076 21.6268C53.7076 19.7518 52.0826 18.2518 50.2076 17.7518C45.9576 16.6268 20.3326 16.5018 15.4576 17.7518C13.5826 18.2518 11.9576 19.7518 11.4576 21.6268C10.3326 26.3768 10.2076 38.5018 11.4576 43.3768C11.9576 45.2518 13.5826 46.7518 15.4576 47.2518C19.9576 48.5018 45.5826 48.5018 50.2076 47.2518C52.0826 46.7518 53.7076 45.2518 54.2076 43.3768C55.3326 38.8768 55.3326 26.2518 54.2076 21.6268Z" fill="white"/>
<path id="Vector_3" d="M28.3333 25.875V39.125L39.9583 32.5" fill="#ED1D24"/>
</g>
</svg>
